<svg width="1588" height="240" viewBox="0 0 1588 240" fill="none" xmlns="http://www.w3.org/2000/svg">
<path fill-rule="evenodd" clip-rule="evenodd" d="M91.4193 34.6457C85.3311 34.6457 80.3957 29.7102 80.3957 23.622C80.3957 17.5339 85.3311 12.5984 91.4193 12.5984C97.5075 12.5984 102.443 17.5339 102.443 23.622C102.443 29.7102 97.5075 34.6457 91.4193 34.6457ZM91.4193 47.2441C78.3732 47.2441 67.7973 36.6681 67.7973 23.622C67.7973 10.576 78.3732 0 91.4193 0C104.465 0 115.041 10.576 115.041 23.622C115.041 36.6681 104.465 47.2441 91.4193 47.2441Z" fill="white"/>
<path fill-rule="evenodd" clip-rule="evenodd" d="M23.622 78.7404C17.5339 78.7404 12.5984 73.805 12.5984 67.7168C12.5984 61.6286 17.5339 56.6932 23.622 56.6932C29.7102 56.6932 34.6457 61.6286 34.6457 67.7168C34.6457 73.805 29.7102 78.7404 23.622 78.7404ZM23.622 91.3388C10.5759 91.3388 -1.52588e-05 80.7629 -1.52588e-05 67.7168C-1.52588e-05 54.6707 10.5759 44.0947 23.622 44.0947C36.6681 44.0947 47.2441 54.6707 47.2441 67.7168C47.2441 80.7629 36.6681 91.3388 23.622 91.3388Z" fill="white"/>
<path fill-rule="evenodd" clip-rule="evenodd" d="M58.3484 141.733C52.2603 141.733 47.3248 136.797 47.3248 130.709C47.3248 124.621 52.2603 119.685 58.3484 119.685C64.4366 119.685 69.3721 124.621 69.3721 130.709C69.3721 136.797 64.4366 141.733 58.3484 141.733ZM58.3484 154.331C45.3023 154.331 34.7264 143.755 34.7264 130.709C34.7264 117.663 45.3023 107.087 58.3484 107.087C71.3945 107.087 81.9705 117.663 81.9705 130.709C81.9705 143.755 71.3945 154.331 58.3484 154.331Z" fill="white"/>
<path fill-rule="evenodd" clip-rule="evenodd" d="M92.9941 203.15C86.9059 203.15 81.9705 198.214 81.9705 192.126C81.9705 186.038 86.9059 181.102 92.9941 181.102C99.0823 181.102 104.018 186.038 104.018 192.126C104.018 198.214 99.0823 203.15 92.9941 203.15ZM92.9941 215.748C79.948 215.748 69.3721 205.172 69.3721 192.126C69.3721 179.08 79.948 168.504 92.9941 168.504C106.04 168.504 116.616 179.08 116.616 192.126C116.616 205.172 106.04 215.748 92.9941 215.748Z" fill="white"/>
<rect width="57.7373" height="15.748" transform="matrix(-0.707107 -0.707107 -0.707107 0.707107 148.489 70.8545)" fill="white"/>
<rect width="55.5448" height="15.748" transform="matrix(-0.707107 -0.707107 -0.707107 0.707107 116.91 99.1191)" fill="white"/>
<rect width="31.3902" height="15.748" transform="matrix(-0.707107 0.707107 0.707107 0.707107 121.566 151.181)" fill="white"/>
<rect width="34.6457" height="15.748" transform="matrix(-1 0 0 1 77.5221 59.8428)" fill="white"/>
<path d="M182.905 110.236C183.162 104.984 183.762 99.7117 184.758 94.4883H105.869V110.236H182.905Z" fill="white"/>
<path d="M184.832 138.583C183.818 133.359 183.202 128.086 182.927 122.835H80.6718V138.583H184.832Z" fill="white"/>
<path d="M188.003 81.8901C189.777 76.497 192.044 71.2206 194.869 66.1421H137.365V81.8901H188.003Z" fill="white"/>
<path d="M195.052 166.929C192.203 161.852 189.914 156.575 188.12 151.181H121.617V166.929H195.052Z" fill="white"/>
<path d="M286.544 166.758C268.251 166.758 254.254 162.554 244.553 154.147C234.853 145.647 230.002 133.082 230.002 116.452C230.002 99.9146 234.853 87.3959 244.553 78.8962C254.254 70.3965 268.251 66.1928 286.544 66.2852L336.434 66.5623V84.3009H288.068C276.058 84.3009 267.142 86.8416 261.322 91.923C255.501 97.0043 252.591 105.181 252.591 116.452C252.591 127.724 255.501 135.946 261.322 141.12C267.142 146.201 276.058 148.742 288.068 148.742H337.82V166.758H286.544Z" fill="white"/>
<path d="M394.485 166.065V130.726L341.962 66.9781H369.401L405.571 111.879L441.603 66.9781H469.042L416.797 130.588V166.065H394.485Z" fill="white"/>
<path d="M478.742 166.065V67.2553L562.169 66.9781C573.163 66.9781 581.293 69.2878 586.559 73.9072C591.918 78.4343 594.597 85.271 594.597 94.4175C594.597 103.564 591.548 110.262 585.451 114.512C589.516 116.729 592.518 119.686 594.458 123.381C596.399 126.984 597.369 131.65 597.369 137.378C597.369 146.709 594.689 153.823 589.331 158.72C584.065 163.524 575.935 165.926 564.94 165.926L478.742 166.065ZM559.536 84.7167H500.915V106.89H559.536C567.943 106.89 572.147 103.102 572.147 95.5261C572.147 88.3198 567.943 84.7167 559.536 84.7167ZM562.307 124.628H500.915V148.188H562.307C570.715 148.188 574.918 144.215 574.918 136.269C574.918 128.509 570.715 124.628 562.307 124.628Z" fill="white"/>
<path d="M612.588 166.065V66.9781H721.237V84.9938H634.761V106.89H713.199V124.906H634.761V148.049H721.237V166.065H612.588Z" fill="white"/>
<path d="M736.419 166.065V66.9781H819.43C829.685 66.9781 837.631 69.565 843.266 74.7387C848.994 79.9125 851.858 87.7655 851.858 98.2978C851.858 107.259 849.78 114.281 845.622 119.362C841.465 124.444 835.552 127.631 827.884 128.925L850.75 166.065H825.528L804.325 129.617H758.592V166.065H736.419ZM816.797 84.9938H758.592V111.463L816.797 111.602C820.862 111.602 823.957 110.585 826.082 108.553C828.299 106.52 829.408 103.102 829.408 98.2978C829.408 93.4012 828.299 89.9828 826.082 88.0427C823.957 86.0101 820.862 84.9938 816.797 84.9938Z" fill="white"/>
<path d="M913.768 166.758V148.742L993.453 148.88C997.518 148.88 1000.61 147.957 1002.74 146.109C1004.96 144.169 1006.06 141.074 1006.06 136.824C1006.06 132.574 1004.96 129.525 1002.74 127.677C1000.61 125.737 997.518 124.767 993.453 124.767H943.841C933.585 124.767 925.594 122.319 919.866 117.422C914.23 112.433 911.412 105.135 911.412 95.5261C911.412 85.9177 914.23 78.6652 919.866 73.7686C925.594 68.7797 933.585 66.2852 943.841 66.2852H1021.72V84.3009L946.196 84.1623C942.224 84.1623 939.129 85.0862 936.911 86.934C934.694 88.6894 933.585 91.5534 933.585 95.5261C933.585 99.4988 934.694 102.409 936.911 104.257C939.129 106.012 942.224 106.89 946.196 106.89H995.809C1006.06 106.89 1014.01 109.431 1019.65 114.512C1025.37 119.501 1028.24 126.938 1028.24 136.824C1028.24 146.617 1025.37 154.054 1019.65 159.136C1014.01 164.217 1006.06 166.758 995.809 166.758H913.768Z" fill="white"/>
<path d="M1092.17 166.758C1074.52 166.758 1060.85 162.554 1051.15 154.147C1041.45 145.647 1036.6 133.082 1036.6 116.452C1036.6 99.9146 1041.45 87.4421 1051.15 79.0348C1060.85 70.5351 1074.85 66.2852 1093.14 66.2852H1118.08C1136.38 66.2852 1150.37 70.5351 1160.07 79.0348C1169.77 87.4421 1174.63 99.9146 1174.63 116.452C1174.63 133.082 1169.77 145.647 1160.07 154.147C1150.37 162.554 1136.61 166.758 1118.78 166.758H1116.97V181.309H1094.8V166.758H1092.17ZM1116.97 131.419V148.742C1128.89 148.649 1137.72 146.063 1143.44 140.981C1149.17 135.9 1152.04 127.724 1152.04 116.452C1152.04 105.181 1149.13 97.0043 1143.31 91.923C1137.58 86.8416 1128.66 84.3009 1116.56 84.3009H1094.66C1082.65 84.3009 1073.74 86.8416 1067.92 91.923C1062.1 97.0043 1059.19 105.181 1059.19 116.452C1059.19 127.724 1062.1 135.946 1067.92 141.12C1073.74 146.201 1082.7 148.742 1094.8 148.742V131.419H1116.97Z" fill="white"/>
<path d="M1228.49 166.758C1218.42 166.758 1210.47 165.464 1204.65 162.877C1198.83 160.198 1194.67 156.179 1192.18 150.821C1189.68 145.462 1188.44 138.718 1188.44 130.588V66.9781H1210.61V130.588C1210.61 137.609 1212.23 142.413 1215.46 145C1218.79 147.495 1224.38 148.742 1232.23 148.742H1258.98C1266.83 148.742 1272.37 147.495 1275.61 145C1278.93 142.413 1280.59 137.609 1280.59 130.588V66.9781H1302.77V130.588C1302.77 138.718 1301.52 145.462 1299.03 150.821C1296.53 156.179 1292.37 160.198 1286.55 162.877C1280.73 165.464 1272.79 166.758 1262.72 166.758H1228.49Z" fill="white"/>
<path d="M1311.13 166.065L1355.75 66.9781H1389.98L1434.6 166.065H1410.49L1401.07 145.139H1344.66L1335.24 166.065H1311.13ZM1352.7 127.123H1393.03L1373.77 84.3009H1371.96L1352.7 127.123Z" fill="white"/>
<path d="M1445.71 166.065V66.9781H1462.06L1506.41 66.8395C1524.33 66.8395 1538.23 71.0432 1548.12 79.4505C1558.01 87.8579 1562.95 100.192 1562.95 116.452C1562.95 132.712 1558.01 145.046 1548.12 153.454C1538.23 161.861 1524.33 166.065 1506.41 166.065H1445.71ZM1504.88 84.8553H1467.88V148.049H1504.88C1516.52 148.049 1525.35 145.508 1531.35 140.427C1537.36 135.346 1540.36 127.354 1540.36 116.452C1540.36 105.458 1537.36 97.4663 1531.35 92.4773C1525.35 87.3959 1516.52 84.8553 1504.88 84.8553Z" fill="white"/>
<path d="M262.25 204.941V215.742H268.988C272.602 215.742 274.652 213.789 274.652 210.332C274.652 206.953 272.465 204.941 268.832 204.941H262.25ZM262.25 218.848V230H258.734V201.816H269.301C274.73 201.816 278.285 205.137 278.285 210.215C278.285 214.141 276.156 217.188 272.621 218.301L279.145 230H275.023L268.988 218.848H262.25ZM336.58 226.836V230H319.119V201.816H336.58V204.98H322.634V214.023H335.857V217.148H322.634V226.836H336.58ZM376.28 222.246H379.816C380.148 225.293 383.038 227.305 387.062 227.305C390.87 227.305 393.644 225.293 393.644 222.52C393.644 220.137 391.984 218.672 388.195 217.695L384.581 216.758C379.386 215.43 377.081 213.145 377.081 209.316C377.081 204.629 381.183 201.348 387.042 201.348C392.648 201.348 396.71 204.668 396.866 209.395H393.351C393.038 206.367 390.597 204.512 386.925 204.512C383.273 204.512 380.734 206.406 380.734 209.16C380.734 211.289 382.296 212.559 386.124 213.555L389.073 214.336C394.913 215.801 397.277 218.047 397.277 222.09C397.277 227.246 393.214 230.469 386.73 230.469C380.753 230.469 376.613 227.227 376.28 222.246ZM455.239 226.836V230H437.778V201.816H455.239V204.98H441.294V214.023H454.516V217.148H441.294V226.836H455.239ZM514.608 230L511.776 221.934H500.565L497.733 230H494.041L504.432 201.816H507.909L518.299 230H514.608ZM506.112 206.094L501.6 218.945H510.741L506.229 206.094H506.112ZM561.438 204.941V215.742H568.176C571.789 215.742 573.84 213.789 573.84 210.332C573.84 206.953 571.652 204.941 568.02 204.941H561.438ZM561.438 218.848V230H557.922V201.816H568.488C573.918 201.816 577.473 205.137 577.473 210.215C577.473 214.141 575.344 217.188 571.809 218.301L578.332 230H574.211L568.176 218.848H561.438ZM629.908 230.469C622.134 230.469 617.213 224.824 617.213 215.898C617.213 207.051 622.193 201.348 629.908 201.348C636.041 201.348 640.709 205.078 641.607 210.703H638.052C637.154 207.012 633.931 204.59 629.908 204.59C624.4 204.59 620.826 209.043 620.826 215.898C620.826 222.812 624.361 227.227 629.927 227.227C634.068 227.227 637.037 225.234 638.052 221.797H641.607C640.318 227.363 636.138 230.469 629.908 230.469ZM704.667 230H701.152V217.168H685.683V230H682.167V201.816H685.683V214.004H701.152V201.816H704.667V230ZM811.081 230L808.463 227.168C806.081 229.277 802.799 230.469 799.459 230.469C793.893 230.469 790.006 227.188 790.006 222.5C790.006 219.199 791.803 216.66 795.534 214.688C796.1 214.395 796.452 214.199 796.608 214.141C794.088 211.465 793.112 209.648 793.112 207.598C793.112 204.023 796.159 201.348 800.221 201.348C804.362 201.348 807.35 203.984 807.35 207.637C807.35 210.508 805.612 212.598 801.315 214.863L808.288 222.383C809.206 220.664 809.635 218.359 809.635 214.883V214.043H812.877V214.902C812.877 219.199 812.096 222.324 810.553 224.746L815.495 230H811.081ZM797.545 216.738C794.635 218.516 793.483 220.098 793.483 222.266C793.483 225.41 796.022 227.539 799.772 227.539C802.291 227.539 804.909 226.523 806.413 224.922L798.483 216.23C798.229 216.348 797.721 216.621 797.545 216.738ZM799.44 212.891C802.819 211.172 804.069 209.766 804.069 207.754C804.069 205.605 802.526 204.102 800.241 204.102C798.014 204.102 796.432 205.645 796.432 207.793C796.432 209.336 797.252 210.703 799.44 212.891ZM898.9 201.816H908.373C916.732 201.816 921.673 207.031 921.673 215.898C921.673 224.785 916.752 230 908.373 230H898.9V201.816ZM902.416 204.98V226.836H908.138C914.525 226.836 918.08 222.93 918.08 215.938C918.08 208.887 914.545 204.98 908.138 204.98H902.416ZM979.909 226.836V230H962.448V201.816H979.909V204.98H965.964V214.023H979.187V217.148H965.964V226.836H979.909ZM1032.58 230H1029.1L1018.71 201.816H1022.4L1030.78 225.723H1030.9L1039.28 201.816H1042.97L1032.58 230ZM1100.05 226.836V230H1082.59V201.816H1100.05V204.98H1086.11V214.023H1099.33V217.148H1086.11V226.836H1100.05ZM1158.21 226.836V230H1141.1V201.816H1144.62V226.836H1158.21ZM1209.2 201.348C1217.19 201.348 1222.19 206.973 1222.19 215.918C1222.19 224.863 1217.19 230.469 1209.2 230.469C1201.21 230.469 1196.21 224.863 1196.21 215.918C1196.21 206.973 1201.21 201.348 1209.2 201.348ZM1209.2 204.59C1203.44 204.59 1199.83 208.965 1199.83 215.918C1199.83 222.852 1203.44 227.227 1209.2 227.227C1214.96 227.227 1218.58 222.852 1218.58 215.918C1218.58 208.965 1214.96 204.59 1209.2 204.59ZM1262.96 201.816H1273.02C1278.32 201.816 1282.05 205.527 1282.05 210.859C1282.05 216.211 1278.28 219.941 1272.98 219.941H1266.48V230H1262.96V201.816ZM1266.48 204.941V216.816H1272.1C1276.13 216.816 1278.43 214.609 1278.43 210.859C1278.43 207.129 1276.15 204.941 1272.1 204.941H1266.48ZM1350.26 230H1346.98V208.281H1346.84L1337.86 229.805H1334.89L1325.91 208.281H1325.77V230H1322.49V201.816H1326.57L1336.3 225.332H1336.45L1346.18 201.816H1350.26V230ZM1409.59 226.836V230H1392.13V201.816H1409.59V204.98H1395.65V214.023H1408.87V217.148H1395.65V226.836H1409.59ZM1454.12 230H1450.64V201.816H1454.06L1469.49 223.945H1469.66V201.816H1473.14V230H1469.72L1454.29 207.949H1454.12V230ZM1525.65 230H1522.14V204.98H1513.25V201.816H1534.54V204.98H1525.65V230Z" fill="white"/>
</svg>
